<?xml version="1.0" encoding="UTF-8"?>
<svg width="128pt" height="128pt" version="1.1" viewBox="0 0 128 128" xmlns="http://www.w3.org/2000/svg">
 <path d="m57.441 32.398c0-4.0547 2.7344-6.8867 6.6484-6.8867 3.793 0 6.3438 2.7695 6.3438 6.8867 0 4.375-2.9141 7.9336-6.4961 7.9336s-6.4961-3.5625-6.4961-7.9336zm-22.805 42.73c-3.9141 0-6.6484 2.832-6.6484 6.8867 0 4.375 2.9141 7.9336 6.4961 7.9336s6.4961-3.5586 6.4961-7.9336c0-4.1172-2.5508-6.8867-6.3438-6.8867zm82.02 13.68c0 8.0977-4.1719 15.234-10.477 19.387-0.085938 0.070313-0.17969 0.12891-0.28125 0.17969-3.6016 2.2969-7.8711 3.6367-12.449 3.6367s-8.8438-1.3359-12.445-3.6367c-0.10156-0.050781-0.19531-0.10938-0.28125-0.17969-6.3047-4.1523-10.473-11.289-10.473-19.387 0-0.53125 0.023438-1.0586 0.058594-1.582h-12.629c0.035156 0.52344 0.058593 1.0469 0.058593 1.582 0 8.0938-4.1719 15.23-10.473 19.383-0.089844 0.070313-0.18359 0.13281-0.28516 0.18359-3.6016 2.2969-7.8672 3.6328-12.445 3.6328s-8.8477-1.3398-12.445-3.6367c-0.10156-0.050782-0.19531-0.10938-0.28125-0.17969-6.3008-4.1523-10.473-11.289-10.473-19.387 0-12.793 10.41-23.203 23.203-23.203 4.1016 0 7.957 1.0742 11.305 2.9531l5.6719-9.8203c-0.085937-0.046875-0.16797-0.097656-0.24609-0.16016-6.3047-4.1523-10.477-11.289-10.477-19.387 0-12.793 10.41-23.203 23.203-23.203 12.793 0 23.203 10.41 23.199 23.203 0 8.0938-4.168 15.23-10.473 19.383-0.078125 0.0625-0.16016 0.11719-0.25 0.16406l5.668 9.8203c3.3477-1.875 7.2031-2.9531 11.305-2.9531 12.805 0.007813 23.211 10.414 23.211 23.207zm-57.301-47.562h9.293c4.8008 0 8.707 3.9062 8.707 8.707v3.9922c4.0234-3.6445 6.5586-8.9102 6.5586-14.754 0-10.977-8.9297-19.91-19.91-19.91-10.98 0-19.91 8.9297-19.91 19.91 0 5.8438 2.5312 11.109 6.5586 14.754v-3.9922c-0.003906-4.8008 3.9023-8.707 8.7031-8.707zm-4.8984 47.562c0-10.98-8.9297-19.91-19.91-19.91s-19.91 8.9297-19.91 19.91c0 5.8477 2.5312 11.109 6.5586 14.758v-3.9922c0-4.8008 3.9062-8.707 8.707-8.707h9.293c4.8008 0 8.707 3.9062 8.707 8.707v3.9922c4.0195-3.6484 6.5547-8.9102 6.5547-14.758zm16.316-4.8711c1.1797-5.4922 4.3047-10.27 8.6211-13.57l-5.8086-10.062c-2.9258 1.332-6.168 2.082-9.5859 2.082s-6.6641-0.75-9.5898-2.082l-5.8086 10.062c4.3164 3.3008 7.4453 8.0742 8.625 13.57zm42.594 4.8711c0-10.98-8.9336-19.91-19.91-19.91-10.98 0-19.91 8.9297-19.91 19.91 0 5.8438 2.5312 11.109 6.5586 14.758v-3.9922c0-4.8008 3.9062-8.707 8.707-8.707h9.293c4.8008 0 8.707 3.9062 8.707 8.707v3.9922c4.0195-3.6484 6.5547-8.9102 6.5547-14.758zm-19.82-13.68c-3.9141 0-6.6484 2.832-6.6484 6.8867 0 4.375 2.9141 7.9336 6.4961 7.9336s6.4961-3.5586 6.4961-7.9336c0-4.1172-2.5508-6.8867-6.3438-6.8867z" fill="#fff"/>
</svg>
