<?xml version="1.0" encoding="UTF-8"?>
<svg width="128pt" height="128pt" version="1.1" viewBox="0 0 128 128" xmlns="http://www.w3.org/2000/svg">
 <g fill="#fff">
  <path d="m16.738 68.602c-0.13672-1.3516-0.80469-2.5938-1.8594-3.4531-1.0508-0.85938-2.4023-1.2656-3.7539-1.125-1.3516 0.13672-2.5938 0.80469-3.4531 1.8594-0.85938 1.0547-1.2617 2.4062-1.1211 3.7578 1.6953 17.285 11.102 32.883 25.598 42.449 14.496 9.5664 32.535 12.086 49.094 6.8516 16.562-5.2344 29.879-17.66 36.242-33.82 6.3672-16.16 5.1016-34.332-3.4453-49.453-8.543-15.121-23.453-25.578-40.578-28.469-17.129-2.8867-34.645 2.1094-47.672 13.594l-13.301-13.301c-0.18359-0.18359-0.45703-0.23828-0.69922-0.13672-0.23828 0.097656-0.39453 0.33203-0.39453 0.58984v31.797c0 0.33984 0.13672 0.66797 0.37891 0.91016 0.23828 0.23828 0.56641 0.375 0.90625 0.375h30.262c0.51562 0 0.98047-0.3125 1.1797-0.78906 0.19531-0.47656 0.085937-1.0273-0.27734-1.3906l-10.797-10.797c9.043-7.7969 20.715-11.867 32.648-11.375 12.18 0.46875 23.711 5.6133 32.191 14.367 8.4844 8.7578 13.262 20.445 13.348 32.633 0.082031 12.191-4.5391 23.941-12.898 32.812-8.3633 8.8672-19.824 14.172-31.996 14.809-12.172 0.63281-24.121-3.4492-33.363-11.402-9.2383-7.9531-15.055-19.16-16.238-31.293z"/>
  <path d="m63.875 27.766c-1.3555 0-2.6602 0.53906-3.6211 1.5-0.95703 0.96094-1.5 2.2617-1.5 3.6211v31.113c0 1.3594 0.54297 2.6602 1.5 3.6211l14.535 14.531c2 1.9844 5.2305 1.9766 7.2227-0.015625 1.9961-1.9922 2-5.2227 0.015625-7.2266l-13.031-13.031v-28.992c0-2.8281-2.293-5.1211-5.1211-5.1211z"/>
 </g>
</svg>
