<?xml version="1.0" encoding="UTF-8"?>
<svg width="128pt" height="128pt" version="1.1" viewBox="0 0 128 128" xmlns="http://www.w3.org/2000/svg">
 <path d="m63.398 14.301c-0.39453 0.10156-0.75781 0.30859-1.0508 0.59375l-47.406 46.223c-0.46094 0.44531-0.71875 1.0586-0.71875 1.6953v48.594c0 1.3086 1.0625 2.3711 2.3711 2.3711h35.555c1.3086 0 2.3711-1.0625 2.3711-2.3711v-30.812h18.961v30.812c0 1.3086 1.0625 2.3711 2.3711 2.3711h35.555c1.3086 0 2.3711-1.0625 2.3711-2.3711v-48.594c0-0.63672-0.25781-1.25-0.71875-1.6953l-47.406-46.223c-0.59375-0.58203-1.4492-0.80469-2.2539-0.59375z" fill="#fff"/>
</svg>
