<?xml version="1.0" encoding="UTF-8"?>
<svg width="128pt" height="128pt" version="1.1" viewBox="0 0 128 128" xmlns="http://www.w3.org/2000/svg">
 <g fill="#fff">
  <path d="m107.12 75.926c0 0.52344-0.039062 1.0391-0.11328 1.5625 0.0625-0.4375 0.125-0.88672 0.17578-1.3242-0.13672 0.94922-0.38672 1.8633-0.75 2.7617 0.16406-0.39844 0.33594-0.80078 0.5-1.1992-0.38672 0.91406-0.88672 1.7617-1.4883 2.5508 0.26172-0.33594 0.52344-0.67578 0.78906-1.0117-0.57422 0.72656-1.2383 1.3867-1.9609 1.9609 0.33594-0.26172 0.67578-0.52344 1.0117-0.78906-0.78906 0.60156-1.6367 1.1016-2.5508 1.4883 0.39844-0.16406 0.80078-0.33594 1.1992-0.5-0.88672 0.36328-1.8125 0.61328-2.7617 0.75 0.4375-0.0625 0.88672-0.125 1.3242-0.17578-1.3516 0.17578-2.7383 0.11328-4.1016 0.11328h-7.5-20.488c-4.0508 0-8.1016-0.074219-12.148 0-2.7734 0.050781-4.0625 1.9883-5.6758 3.8008-2.0117 2.2734-4.0391 4.5508-6.0508 6.8242-3.6016 4.0625-7.2109 8.125-10.812 12.188-0.0625 0.074219-0.13672 0.14844-0.19922 0.22656 2.8516 1.1758 5.6875 2.3633 8.5391 3.5391v-7.2891-11.613-2.6758c0-2.6992-2.2891-5-5-5h-11.039c-0.85156 0-1.6758 0-2.5234-0.11328 0.4375 0.0625 0.88672 0.125 1.3242 0.17578-0.94922-0.13672-1.8633-0.38672-2.7617-0.75 0.39844 0.16406 0.80078 0.33594 1.1992 0.5-0.91406-0.38672-1.7617-0.88672-2.5508-1.4883 0.33594 0.26172 0.67578 0.52344 1.0117 0.78906-0.72656-0.57422-1.3867-1.2383-1.9609-1.9609 0.26172 0.33594 0.52344 0.67578 0.78906 1.0117-0.60156-0.78906-1.1016-1.6367-1.4883-2.5508 0.16406 0.39844 0.33594 0.80078 0.5 1.1992-0.36328-0.88672-0.61328-1.8125-0.75-2.7617 0.0625 0.4375 0.125 0.88672 0.17578 1.3242-0.23828-1.8359-0.11328-3.7734-0.11328-5.625v-11.039-13.488-11.539c0-1.7266-0.011719-3.4492 0-5.1641 0-0.52344 0.039062-1.0508 0.11328-1.5742-0.0625 0.4375-0.125 0.88672-0.17578 1.3242 0.13672-0.94922 0.38672-1.8633 0.75-2.7617-0.16406 0.39844-0.33594 0.80078-0.5 1.1992 0.38672-0.91406 0.88672-1.7617 1.4883-2.5508-0.26172 0.33594-0.52344 0.67578-0.78906 1.0117 0.57422-0.72656 1.2383-1.3867 1.9609-1.9609-0.33594 0.26172-0.67578 0.52344-1.0117 0.78906 0.78906-0.60156 1.6367-1.1016 2.5508-1.4883-0.39844 0.16406-0.80078 0.33594-1.1992 0.5 0.88672-0.36328 1.8125-0.61328 2.7617-0.75-0.4375 0.0625-0.88672 0.125-1.3242 0.17578 1.0742-0.13672 2.1758-0.11328 3.25-0.11328h5.25 17.824 21.75 18.727c2.8633 0 5.7266-0.011719 8.5859 0 0.53906 0 1.0742 0.039062 1.6133 0.11328-0.4375-0.0625-0.88672-0.125-1.3242-0.17578 0.94922 0.13672 1.8633 0.38672 2.7617 0.75-0.39844-0.16406-0.80078-0.33594-1.1992-0.5 0.91406 0.38672 1.7617 0.88672 2.5508 1.4883-0.33594-0.26172-0.67578-0.52344-1.0117-0.78906 0.72656 0.57422 1.3867 1.2383 1.9609 1.9609-0.26172-0.33594-0.52344-0.67578-0.78906-1.0117 0.60156 0.78906 1.1016 1.6367 1.4883 2.5508-0.16406-0.39844-0.33594-0.80078-0.5-1.1992 0.36328 0.88672 0.61328 1.8125 0.75 2.7617-0.0625-0.4375-0.125-0.88672-0.17578-1.3242 0.23828 1.8125 0.11328 3.6992 0.11328 5.5117v10.727 13.289 11.551c0 1.8984-0.039062 3.7891 0 5.6875v0.10156c0 2.6133 2.3008 5.125 5 5 2.7109-0.125 5-2.1992 5-5v-5.6367-12.977-14.539-10.363-1.7734c-0.023438-4.2266-1.6875-8.3125-4.625-11.336-3.0117-3.1016-7.2617-4.8359-11.562-4.8633h-1.0625-7.0742-11.773-14.398-14.727-12.988-8.9609c-2.1875 0-4.2734-0.039062-6.4492 0.39844-4.3125 0.875-8.2109 3.8516-10.414 7.6133-1.5039 2.5508-2.2148 5.4648-2.2148 8.4141v7.4609 13.699 14.238 8.875c0 1.6641 0.11328 3.3125 0.53906 4.9258 1.1016 4.2383 4.1016 8.1016 7.9883 10.113 2.2109 1.1484 4.4883 1.7617 6.9609 1.9141 0.57422 0.039062 1.1641 0.023437 1.7383 0.023437h6.6992 4.2734c-1.6641-1.6641-3.3359-3.3359-5-5v7.2891 11.613 2.6758c0 2 1.2617 3.8008 3.0742 4.5742 1.75 0.73828 4.1367 0.46094 5.4609-1.0391 2.1641-2.4375 4.3125-4.8633 6.4766-7.3008 3.4375-3.875 6.875-7.75 10.312-11.625 0.78906-0.88672 1.5625-1.7617 2.3516-2.6484-1.1758 0.48828-2.3633 0.97656-3.5391 1.4609h6.1016 13.648 14.426 8.25c2.875 0 5.6758-0.66406 8.1992-2.0508 3.875-2.125 6.9258-6.0859 7.8633-10.414 0.26172-1.2109 0.42578-2.4883 0.4375-3.7266 0.023437-2.6133-2.3125-5.125-5-5-2.7383 0.11719-4.9883 2.1914-5.0117 5.0039z"/>
  <path d="m37.375 48.426h5.1133 12.273 14.926 12.852c2.0859 0 4.1758 0.039063 6.25 0h0.085938c2.6133 0 5.125-2.3008 5-5-0.125-2.7109-2.1992-5-5-5h-5.1133-12.273-14.926-12.852c-2.0859 0-4.1758-0.039062-6.25 0h-0.085938c-2.6133 0-5.125 2.3008-5 5 0.11328 2.7109 2.1875 5 5 5z"/>
  <path d="m37.375 68.676h11.977 19.062 4.3359c2.6133 0 5.125-2.3008 5-5-0.125-2.7109-2.1992-5-5-5h-11.977-19.062-4.3359c-2.6133 0-5.125 2.3008-5 5 0.11328 2.7109 2.1875 5 5 5z"/>
 </g>
</svg>
