<?xml version="1.0" encoding="UTF-8"?>
<svg width="128pt" height="128pt" version="1.1" viewBox="0 0 128 128" xmlns="http://www.w3.org/2000/svg">
 <g fill="#fff">
  <path d="m110.64 3.1992h-93.273c-2.0977 0-3.8008 1.7031-3.8008 3.8008v82.91c0 1.0078 0.39844 1.9727 1.1133 2.6875l31.09 31.09c0.71484 0.71094 1.6797 1.1133 2.6875 1.1133h62.184c2.0977 0 3.8008-1.7031 3.8008-3.8008v-114c0-2.0977-1.7031-3.8008-3.8008-3.8008zm-65.984 108.62-18.113-18.113h18.117v18.113zm62.184 5.375h-54.582v-27.289c0-2.0977-1.7031-3.8008-3.8008-3.8008h-27.289v-75.309h85.672z"/>
  <path d="m89.91 96.473h-20.727c-2.0977 0-3.8008 1.7031-3.8008 3.8008 0 2.0977 1.7031 3.8008 3.8008 3.8008h20.727c2.0977 0 3.8008-1.7031 3.8008-3.8008 0-2.0977-1.7031-3.8008-3.8008-3.8008z"/>
  <path d="m38.09 52.254h31.09c2.0977 0 3.8008-1.7031 3.8008-3.8008s-1.7031-3.8008-3.8008-3.8008h-31.09c-2.0977 0-3.8008 1.7031-3.8008 3.8008 0 2.1016 1.7031 3.8008 3.8008 3.8008z"/>
  <path d="m95.09 48.453c0 6.9102-10.363 6.9102-10.363 0s10.363-6.9102 10.363 0"/>
  <path d="m38.09 72.98h31.09c2.0977 0 3.8008-1.7031 3.8008-3.8008 0-2.0977-1.7031-3.8008-3.8008-3.8008l-31.09 0.003906c-2.0977 0-3.8008 1.7031-3.8008 3.8008s1.7031 3.7969 3.8008 3.7969z"/>
  <path d="m95.09 69.184c0 6.9102-10.363 6.9102-10.363 0s10.363-6.9102 10.363 0"/>
  <path d="m38.09 31.527h31.09c2.0977 0 3.8008-1.7031 3.8008-3.8008 0-2.0977-1.7031-3.8008-3.8008-3.8008h-31.09c-2.0977 0-3.8008 1.7031-3.8008 3.8008 0 2.0977 1.7031 3.8008 3.8008 3.8008z"/>
  <path d="m95.09 27.727c0 6.9102-10.363 6.9102-10.363 0 0-6.9102 10.363-6.9102 10.363 0"/>
 </g>
</svg>
