<?xml version="1.0" encoding="UTF-8"?>
<svg width="128pt" height="128pt" version="1.1" viewBox="0 0 128 128" xmlns="http://www.w3.org/2000/svg">
 <path d="m23.426 118.91 91.008-104.57c1.4062-1.6641 1.2812-4.2227-0.38281-5.6328-1.6641-1.4062-4.2227-1.2812-5.6328 0.38281l-22.656 26.113c-6.9102-2.8164-13.824-4.2227-20.992-4.2227-33.152 0-56.32 30.977-57.215 32.258-1.1562 1.4062-1.0273 3.3242-0.003907 4.7344 8.9609 11.137 18.434 19.328 28.031 24.703l-18.176 20.992c-1.4062 1.6641-1.2812 4.2227 0.38281 5.6328 0.76953 0.64062 1.6641 1.0234 2.5586 1.0234 1.1562-0.12891 2.3086-0.51172 3.0781-1.4102zm30.59-47.359c-1.0234-1.793-1.6641-3.8398-1.6641-6.0156 0-6.3984 5.2461-11.648 11.648-11.648 1.6641 0 3.1992 0.38281 4.6094 0.89453zm-38.145-6.1445c5.8867-6.9102 24.703-26.625 48.895-26.625 5.2461 0 10.367 0.89453 15.359 2.6875l-6.1406 7.1719c-2.9453-1.793-6.2734-2.6875-9.9844-2.6875-10.754 0-19.586 8.832-19.586 19.586 0 4.6094 1.6641 8.832 4.2227 12.16l-7.6797 8.832c-8.5742-4.4844-16.895-11.523-25.086-21.125zm104.58-2.4297c1.1523 1.4062 1.1523 3.457 0.12891 4.8633-1.0234 1.2812-24.062 32.258-57.215 32.258-3.9688 0-7.9375-0.51172-11.777-1.4062l6.1445-7.0391c1.9219 0.25781 3.8398 0.38281 5.7617 0.38281 23.934 0.125 42.746-19.586 48.637-26.5-5.7617-6.7852-11.648-12.16-17.535-16.383l5.2461-6.0156c7.0391 5.1211 13.953 11.648 20.609 19.84z" fill="#fff"/>
</svg>
