<?xml version="1.0" encoding="UTF-8"?>
<svg width="128pt" height="128pt" version="1.1" viewBox="0 0 128 128" xmlns="http://www.w3.org/2000/svg">
 <path d="m56.746 29.336c-1.2188 0.003906-2.3125 1.2461-2.418 2.2148l-0.65625 8.0117c-2.0312 0.86328-3.9336 1.9609-5.668 3.2734l-7.2812-3.4258c-1.0859-0.50781-2.5234-0.054687-3.125 0.98438l-7.2539 12.543c-0.58984 1.0312-0.26562 2.4883 0.70703 3.1758l6.6758 4.6367c-0.13672 1.0664-0.32812 2.125-0.32812 3.25 0 1.1211 0.19141 2.1602 0.32812 3.2227l-6.6758 4.6367c-0.98438 0.6875-1.3086 2.1641-0.70703 3.1992l7.2539 12.543c0.60547 1.0312 2.043 1.4727 3.125 0.95703l7.2812-3.4258c1.7344 1.3125 3.6367 2.4141 5.668 3.2734l0.65625 8.0391c0.10156 1.1992 1.2148 2.2227 2.418 2.2148h14.508c1.2031 0 2.3164-1.0195 2.418-2.2148l0.65625-8.0352c2.0312-0.86328 3.9336-1.9609 5.668-3.2734l7.2812 3.4258c1.0781 0.51562 2.5156 0.074219 3.125-0.95703l7.2539-12.543c0.60156-1.0352 0.27734-2.5117-0.70703-3.1992l-6.6758-4.6367c0.13672-1.0625 0.32812-2.1055 0.32812-3.2227 0-1.125-0.1875-2.1836-0.32812-3.25l6.6758-4.6367c0.97266-0.6875 1.293-2.1406 0.70703-3.1758l-7.2539-12.543c-0.59766-1.0391-2.0391-1.4922-3.125-0.98438l-7.2812 3.4258c-1.7344-1.3125-3.6367-2.4141-5.668-3.2734l-0.65625-8.0117c-0.10156-1.1992-1.2148-2.2227-2.418-2.2148h-14.508zm2.2422 4.8359h10.027l0.60547 7.2031c0.082031 0.91797 0.74219 1.7617 1.6133 2.0664 2.5625 0.90234 4.9062 2.2695 6.9258 4.0039 0.70703 0.60938 1.7773 0.75391 2.6211 0.35156l6.5508-3.0742 5.0391 8.6914-5.9961 4.1562c-0.75 0.53125-1.1523 1.5156-0.98438 2.418 0.24609 1.3203 0.37891 2.6562 0.37891 4.0039 0 1.3477-0.13281 2.6602-0.37891 3.9805-0.16797 0.90234 0.23047 1.8867 0.98438 2.418l5.9961 4.1562-5.0391 8.6914-6.5508-3.0742c-0.83984-0.40234-1.9141-0.25781-2.6211 0.35156-2.0234 1.7383-4.3633 3.1016-6.9258 4.0039-0.87891 0.30859-1.5391 1.1641-1.6133 2.0898l-0.60547 7.2031h-10.027l-0.60547-7.2031c-0.074218-0.92969-0.73437-1.7852-1.6133-2.0898-2.5625-0.90234-4.9062-2.2695-6.9258-4.0039-0.70703-0.60938-1.7773-0.75391-2.6211-0.35156l-6.5508 3.0742-5.0391-8.6914 5.9961-4.1562c0.75-0.53125 1.1523-1.5156 0.98438-2.418-0.24609-1.3125-0.37891-2.625-0.37891-3.9727s0.13281-2.6836 0.37891-4.0039c0.16797-0.90234-0.23047-1.8867-0.98438-2.418l-5.9961-4.1562 5.0391-8.6914 6.5508 3.0742c0.83984 0.40234 1.9141 0.25781 2.6211-0.35156 2.0234-1.7383 4.3633-3.1016 6.9258-4.0039 0.87109-0.30469 1.5273-1.1445 1.6133-2.0664l0.60547-7.2031zm5.0117 13.703c-8.875 0-16.121 7.2461-16.121 16.121s7.2461 16.121 16.121 16.121 16.121-7.2461 16.121-16.121-7.2461-16.121-16.121-16.121zm0 4.8359c6.2617 0 11.285 5.0234 11.285 11.285 0 6.2617-5.0234 11.285-11.285 11.285s-11.285-5.0234-11.285-11.285c0-6.2617 5.0234-11.285 11.285-11.285z" fill="#fff"/>
</svg>
