<?xml version="1.0" encoding="UTF-8"?>
<svg width="128pt" height="128pt" version="1.1" viewBox="0 0 128 128" xmlns="http://www.w3.org/2000/svg">
 <g fill="#fff">
  <path d="m61.871 61.551 10.77 11.965 1.4375-1.707c0.046875-0.058594 4.6445-5.5117 9.0703-10.254h22.879c6.0312 0 10.938-4.9062 10.938-10.938v-32.559c0-6.0312-4.9062-10.938-10.938-10.938h-48.684c-6.0312 0-10.938 4.9062-10.938 10.938v32.555c0 6.0312 4.9062 10.938 10.938 10.938zm15.773-12.09c-0.77734-0.73438-1.168-1.6016-1.168-2.6016 0-1.0273 0.39063-1.8867 1.168-2.5781 0.77734-0.69141 1.7539-1.0352 2.9297-1.0352 1.1602 0 2.1211 0.34375 2.8867 1.0352 0.76562 0.67578 1.1445 1.5352 1.1445 2.5781 0 1.0586-0.375 1.9297-1.125 2.6211-0.76562 0.69141-1.7344 1.0352-2.9062 1.0352-1.1758 0.003906-2.1523-0.34766-2.9297-1.0547zm12.492-21.16c-0.20703 0.72656-0.50781 1.4141-0.90234 2.0586-0.39844 0.64453-0.88672 1.2656-1.4766 1.8633-0.58594 0.59375-1.2617 1.207-2.0273 1.8398-0.51562 0.42578-0.96484 0.82422-1.3555 1.1914-0.39062 0.36719-0.71484 0.73047-0.96875 1.0898-0.25781 0.35938-0.45312 0.74219-0.58203 1.1445-0.13281 0.40625-0.19922 0.86328-0.19922 1.3789 0 0.35156 0.046875 0.71484 0.14453 1.0781 0.097657 0.36719 0.22266 0.67578 0.38672 0.92578h-5.793c-0.14844-0.38281-0.26172-0.8125-0.33984-1.2891-0.082032-0.47656-0.12109-0.92969-0.12109-1.3555 0-0.67578 0.066406-1.293 0.19922-1.8516 0.13281-0.55859 0.33203-1.082 0.59375-1.5742 0.26563-0.49219 0.59375-0.96094 0.99219-1.4102s0.85938-0.89062 1.3867-1.332c0.55859-0.46875 1.0469-0.90625 1.4648-1.3125 0.41797-0.40625 0.77344-0.80859 1.0703-1.2109 0.29297-0.40625 0.51562-0.82422 0.66016-1.2539 0.14844-0.43359 0.21875-0.91406 0.21875-1.4414 0-0.45703-0.082031-0.87891-0.24219-1.2656-0.16016-0.39062-0.39453-0.72266-0.69531-1.0039-0.30078-0.27734-0.66797-0.5-1.1016-0.66016-0.43359-0.16016-0.91406-0.24219-1.4453-0.24219-1.1445 0-2.3359 0.23828-3.5703 0.71484-1.2344 0.47656-2.4023 1.1992-3.5039 2.168v-6.6328c1.1328-0.67578 2.3672-1.1836 3.7031-1.5195 1.3359-0.33984 2.7188-0.50781 4.1406-0.50781 1.3672 0 2.6367 0.15234 3.8125 0.45312 1.1758 0.30078 2.1992 0.77344 3.0742 1.4219 0.875 0.64453 1.5547 1.4727 2.0508 2.4766 0.49219 1.0078 0.73828 2.2148 0.73828 3.625-0.003907 0.89453-0.10938 1.707-0.3125 2.4336z"/>
  <path d="m46.605 71.879c0-6.6328-5.3984-12.035-12.031-12.035-6.6328 0-12.031 5.3984-12.031 12.035 0 6.6367 5.3984 12.031 12.031 12.031 6.6328 0 12.031-5.3984 12.031-12.031z"/>
  <path d="m53.52 103.95v0h1.2969c0-8.3281-6.7734-15.102-15.102-15.102h-10.277c-8.3281 0-15.102 6.7734-15.102 15.102z"/>
  <path d="m6.3984 109.03h69.488v6.4844h-69.488z"/>
  <path d="m89.324 88.812c0 6.6328 5.3984 12.031 12.031 12.031 6.6328 0 12.031-5.3984 12.031-12.031s-5.3984-12.031-12.031-12.031c-6.6328 0-12.031 5.3945-12.031 12.031z"/>
  <path d="m96.219 105.77c-8.3281 0-15.102 6.7734-15.102 15.102h37.891l2.5938 0.003906c0-8.3281-6.7734-15.102-15.102-15.102z"/>
 </g>
</svg>
